<svg width="32" height="32" viewBox="0 0 32 32" xmlns="http://www.w3.org/2000/svg">
  <defs>
    <linearGradient id="faviconGrad" x1="0%" y1="0%" x2="100%" y2="100%">
      <stop offset="0%" style="stop-color:#F59E0B;stop-opacity:1" />
      <stop offset="100%" style="stop-color:#EF4444;stop-opacity:1" />
    </linearGradient>
    <linearGradient id="faviconBg" x1="0%" y1="0%" x2="100%" y2="100%">
      <stop offset="0%" style="stop-color:#1E293B;stop-opacity:1" />
      <stop offset="100%" style="stop-color:#334155;stop-opacity:1" />
    </linearGradient>
  </defs>
  
  <!-- Optimized container for favicon -->
  <rect x="2" y="2" width="28" height="28" rx="4" fill="url(#faviconBg)"/>
  
  <!-- Simplified car icon for small sizes -->
  <g transform="translate(6, 8)">
    <!-- Minimalist car body -->
    <path d="M2 12 Q2 10 4 10 L16 10 Q18 10 18 12 L18 14 Q18 16 16 16 L4 16 Q2 16 2 14 Z" 
          fill="url(#faviconGrad)"/>
    
    <!-- Simple roof -->
    <path d="M4.5 10 Q6 8 8 8 L12 8 Q14 8 15.5 10" fill="url(#faviconGrad)" opacity="0.7"/>
    
    <!-- Wheels -->
    <circle cx="6" cy="16" r="2" fill="white" stroke="url(#faviconGrad)" stroke-width="1"/>
    <circle cx="14" cy="16" r="2" fill="white" stroke="url(#faviconGrad)" stroke-width="1"/>
    <circle cx="6" cy="16" r="1" fill="url(#faviconGrad)"/>
    <circle cx="14" cy="16" r="1" fill="url(#faviconGrad)"/>
    
    <!-- AI indicator - simplified -->
    <circle cx="10" cy="6" r="2" fill="white" opacity="0.9"/>
    <circle cx="10" cy="6" r="1" fill="url(#faviconGrad)"/>
  </g>
</svg>